<?xml version="1.0" standalone="no"?>
<!DOCTYPE svg PUBLIC "-//W3C//DTD SVG 20010904//EN"
 "http://www.w3.org/TR/2001/REC-SVG-20010904/DTD/svg10.dtd">
<svg version="1.0" xmlns="http://www.w3.org/2000/svg"
 width="512.000000pt" height="512.000000pt" viewBox="0 0 512.000000 512.000000"
 preserveAspectRatio="xMidYMid meet">

<g transform="translate(0.000000,512.000000) scale(0.100000,-0.100000)"
fill="#c8f167" stroke="none">
<path d="M2033 4673 c9 -207 36 -555 91 -1168 24 -258 42 -471 41 -473 -2 -2
-70 33 -151 77 -276 149 -683 321 -1265 535 -156 57 -285 104 -285 103 -6 -6
-335 -1030 -332 -1032 7 -7 428 -124 623 -173 328 -83 918 -210 1108 -237 26
-4 47 -9 47 -11 0 -3 -30 -33 -67 -67 -144 -135 -464 -490 -749 -832 -277
-332 -407 -496 -398 -504 21 -19 834 -592 848 -597 17 -6 73 67 213 276 174
261 401 651 638 1098 59 112 111 200 115 195 3 -4 67 -109 140 -233 180 -304
378 -625 516 -838 172 -265 336 -502 347 -502 8 0 859 580 881 601 9 8 -38 66
-373 459 -278 326 -472 541 -663 736 l-178 181 172 27 c354 56 773 146 1127
242 168 45 503 143 509 149 3 3 -327 1026 -333 1033 -3 4 -362 -115 -520 -173
-304 -110 -721 -287 -1049 -444 -82 -39 -152 -71 -156 -71 -3 0 0 51 7 113 59
516 107 1037 148 1605 l7 92 -533 0 -532 0 6 -167z"/>
</g>
</svg>
