<?xml version="1.0" standalone="no"?>
<!DOCTYPE svg PUBLIC "-//W3C//DTD SVG 20010904//EN"
 "http://www.w3.org/TR/2001/REC-SVG-20010904/DTD/svg10.dtd">
<svg version="1.0" xmlns="http://www.w3.org/2000/svg"
 width="512.000000pt" height="512.000000pt" viewBox="0 0 512.000000 512.000000"
 preserveAspectRatio="xMidYMid meet">

<g transform="translate(0.000000,512.000000) scale(0.100000,-0.100000)"
fill="#ffffff" stroke="none">
<path d="M2513 4936 l-28 -24 -3 -549 -3 -549 -33 -12 c-73 -27 -101 -69 -525
-815 -227 -400 -417 -727 -420 -727 -4 0 -17 18 -29 39 -27 47 -83 98 -130
118 -19 8 -63 14 -99 14 -74 0 -132 -23 -180 -73 -18 -18 -260 -433 -538 -922
-381 -669 -509 -902 -518 -942 -28 -135 66 -286 203 -324 19 -5 93 -10 163
-10 123 0 129 1 152 25 32 31 33 74 2 103 -21 20 -34 22 -148 22 -101 0 -131
3 -158 18 -44 23 -73 76 -69 122 2 24 89 186 267 497 l263 462 56 -28 c76 -38
105 -44 152 -31 56 15 92 50 145 140 26 44 49 80 51 80 2 0 55 -38 117 -84
138 -102 164 -116 217 -116 87 0 130 41 223 211 16 29 32 48 37 43 5 -5 176
-301 379 -659 l371 -650 -820 -5 c-754 -5 -821 -6 -836 -22 -27 -27 -22 -77
10 -105 l27 -23 2032 0 c1299 0 2045 4 2067 10 137 38 231 189 203 324 -8 39
-138 275 -518 942 -278 489 -520 904 -538 922 -97 100 -268 100 -364 0 -17
-18 -277 -465 -577 -993 -301 -528 -551 -960 -556 -960 -8 0 -970 1678 -970
1692 0 4 298 532 305 541 1 1 41 -18 89 -43 71 -37 96 -45 139 -45 96 1 151
40 221 157 35 58 39 62 59 52 12 -7 79 -43 149 -81 137 -74 187 -87 256 -68
63 17 109 65 181 189 35 61 67 113 70 115 4 3 76 -118 161 -267 85 -149 162
-279 172 -289 39 -39 118 -3 118 53 0 42 -710 1289 -763 1341 -21 21 -54 43
-73 50 l-34 12 0 248 0 248 325 0 326 0 24 25 c14 13 25 34 25 47 0 13 -27 72
-60 132 -33 61 -60 115 -60 121 0 6 27 60 60 121 33 60 60 119 60 132 0 13
-11 34 -25 47 l-24 25 -375 0 -375 0 -28 -24z m617 -135 c0 -5 -15 -36 -34
-70 -19 -33 -37 -69 -41 -81 -6 -20 17 -75 67 -157 l20 -33 -251 0 -251 0 0
175 0 175 245 0 c139 0 245 -4 245 -9z m-527 -1135 c18 -7 40 -22 49 -33 22
-25 318 -544 318 -558 0 -6 -40 -78 -88 -160 -65 -111 -94 -152 -113 -159 -23
-8 -53 5 -218 94 -236 126 -220 127 -319 -35 -80 -131 -86 -133 -192 -80 -69
35 -71 37 -58 58 8 12 113 195 233 407 120 212 229 400 243 419 23 31 70 60
100 61 7 0 27 -6 45 -14z m-1282 -1413 c9 -10 73 -118 142 -240 l126 -221 -76
-136 c-42 -75 -83 -136 -90 -136 -7 0 -83 52 -169 115 -86 63 -167 118 -181
121 -39 10 -70 -21 -140 -144 -71 -122 -77 -127 -137 -91 l-36 21 17 31 c39
77 377 664 391 680 34 38 117 38 153 0z m2625 6 c11 -9 353 -599 403 -696 9
-19 7 -24 -25 -42 -60 -36 -66 -31 -137 91 -70 123 -101 154 -140 144 -14 -3
-95 -58 -181 -121 -86 -63 -162 -115 -169 -115 -7 0 -48 61 -90 136 l-76 136
126 221 c69 122 133 230 141 240 31 35 109 39 148 6z m-454 -704 c71 -137 125
-185 208 -185 51 0 79 15 194 99 50 37 103 75 117 85 l27 17 47 -80 c53 -91
89 -126 145 -141 47 -13 76 -7 152 31 l56 28 262 -460 c171 -301 264 -474 267
-498 6 -47 -23 -99 -69 -123 -33 -17 -90 -18 -1121 -16 l-1086 3 350 615 c193
338 362 635 376 659 24 42 27 43 40 25 8 -10 24 -37 35 -59z"/>
</g>
</svg>
